<svg width="102" height="55" viewBox="0 0 102 55" fill="none" xmlns="http://www.w3.org/2000/svg">
<path d="M4.48295 34.5966V29.6875L27.8011 18.9148V24.9659L11.233 32.0739L11.4205 31.75V32.5341L11.233 32.2102L27.8011 39.3182V45.3693L4.48295 34.5966ZM49.7173 9.45454L38.4673 51.25H33.0639L44.3139 9.45454H49.7173Z" fill="#F10279"/>
<path d="M95.8011 34.5966L72.483 45.3693V39.3182L89.0511 32.2102L88.8636 32.5341V31.75L89.0511 32.0739L72.483 24.9659V18.9148L95.8011 29.6875V34.5966Z" fill="#F10279"/>
<path d="M63.7605 11.1076L69.2594 11.2164L43.1978 34.3057L44.8201 28.1365L63.7605 11.1076Z" fill="black"/>
<path d="M56.1699 46.3193L61.2864 46.2L50.4082 27.5917L47.0041 30.5832L56.1699 46.3193Z" fill="black"/>
</svg>
