<svg width="173" height="56" viewBox="0 0 173 56" fill="none" xmlns="http://www.w3.org/2000/svg">
<path d="M4.48295 34.5966V29.6875L27.8011 18.9148V24.9659L11.233 32.0739L11.4205 31.75V32.5341L11.233 32.2102L27.8011 39.3182V45.3693L4.48295 34.5966ZM49.7173 9.45454L38.4673 51.25H33.0639L44.3139 9.45454H49.7173Z" fill="#F10279"/>
<path d="M79.3864 46.6136C77.7273 46.6136 76.2216 46.3011 74.8693 45.6761C73.517 45.0398 72.4432 44.125 71.6477 42.9318C70.8523 41.7273 70.4545 40.2727 70.4545 38.5682C70.4545 37.0682 70.75 35.8523 71.3409 34.9205C71.9318 33.9773 72.7216 33.2386 73.7102 32.7045C74.6989 32.1705 75.7898 31.7727 76.983 31.5114C78.1875 31.2386 79.3977 31.0227 80.6136 30.8636C82.2045 30.6591 83.4943 30.5057 84.483 30.4034C85.483 30.2898 86.2102 30.1023 86.6648 29.8409C87.1307 29.5795 87.3636 29.125 87.3636 28.4773V28.3409C87.3636 26.6591 86.9034 25.3523 85.983 24.4205C85.0739 23.4886 83.6932 23.0227 81.8409 23.0227C79.9205 23.0227 78.4148 23.4432 77.3239 24.2841C76.233 25.125 75.4659 26.0227 75.0227 26.9773L71.2045 25.6136C71.8864 24.0227 72.7955 22.7841 73.9318 21.8977C75.0795 21 76.3295 20.375 77.6818 20.0227C79.0455 19.6591 80.3864 19.4773 81.7045 19.4773C82.5455 19.4773 83.5114 19.5795 84.6023 19.7841C85.7045 19.9773 86.767 20.3807 87.7898 20.9943C88.8239 21.608 89.6818 22.5341 90.3636 23.7727C91.0455 25.0114 91.3864 26.6705 91.3864 28.75V46H87.3636V42.4545H87.1591C86.8864 43.0227 86.4318 43.6307 85.7955 44.2784C85.1591 44.9261 84.3125 45.4773 83.2557 45.9318C82.1989 46.3864 80.9091 46.6136 79.3864 46.6136ZM80 43C81.5909 43 82.9318 42.6875 84.0227 42.0625C85.125 41.4375 85.9545 40.6307 86.5114 39.642C87.0795 38.6534 87.3636 37.6136 87.3636 36.5227V32.8409C87.1932 33.0455 86.8182 33.233 86.2386 33.4034C85.6705 33.5625 85.0114 33.7045 84.2614 33.8295C83.5227 33.9432 82.8011 34.0455 82.0966 34.1364C81.4034 34.2159 80.8409 34.2841 80.4091 34.3409C79.3636 34.4773 78.3864 34.6989 77.4773 35.0057C76.5795 35.3011 75.8523 35.75 75.2955 36.3523C74.75 36.9432 74.4773 37.75 74.4773 38.7727C74.4773 40.1705 74.9943 41.2273 76.0284 41.9432C77.0739 42.6477 78.3977 43 80 43ZM98.7287 46V19.8182H102.615V23.7727H102.888C103.365 22.4773 104.229 21.4261 105.479 20.6193C106.729 19.8125 108.138 19.4091 109.706 19.4091C110.001 19.4091 110.371 19.4148 110.814 19.4261C111.257 19.4375 111.592 19.4545 111.82 19.4773V23.5682C111.683 23.5341 111.371 23.483 110.882 23.4148C110.405 23.3352 109.899 23.2955 109.365 23.2955C108.092 23.2955 106.956 23.5625 105.956 24.0966C104.967 24.6193 104.183 25.3466 103.604 26.2784C103.036 27.1989 102.751 28.25 102.751 29.4318V46H98.7287ZM119.976 55.8182C119.294 55.8182 118.686 55.7614 118.152 55.6477C117.618 55.5455 117.249 55.4432 117.044 55.3409L118.067 51.7955C119.044 52.0455 119.908 52.1364 120.658 52.0682C121.408 52 122.072 51.6648 122.652 51.0625C123.243 50.4716 123.783 49.5114 124.271 48.1818L125.021 46.1364L115.339 19.8182H119.703L126.93 40.6818H127.203L134.43 19.8182H138.794L127.68 49.8182C127.18 51.1705 126.561 52.2898 125.822 53.1761C125.084 54.0739 124.226 54.7386 123.249 55.1705C122.283 55.6023 121.192 55.8182 119.976 55.8182Z" fill="black"/>
<path d="M168.223 34.5966L144.905 45.3693V39.3182L161.473 32.2102L161.286 32.5341V31.75L161.473 32.0739L144.905 24.9659V18.9148L168.223 29.6875V34.5966Z" fill="#F10279"/>
<path d="M63.7605 11.1076L69.2594 11.2164L43.1978 34.3057L44.8201 28.1365L63.7605 11.1076Z" fill="black"/>
<path d="M56.1699 46.3193L61.2864 46.2L50.4082 27.5917L47.0041 30.5832L56.1699 46.3193Z" fill="black"/>
</svg>
