<svg width="39" height="16" viewBox="0 0 39 16" fill="none" xmlns="http://www.w3.org/2000/svg">
<path d="M7.81117 15.24C6.73117 15.24 5.72451 15.0667 4.79117 14.72C3.87117 14.36 3.07117 13.8533 2.39117 13.2C1.71117 12.5467 1.17784 11.78 0.791172 10.9C0.417839 10.02 0.231172 9.05333 0.231172 8C0.231172 6.94667 0.417839 5.98 0.791172 5.1C1.17784 4.22 1.71117 3.45333 2.39117 2.8C3.08451 2.14667 3.89117 1.64667 4.81117 1.3C5.73117 0.939999 6.73784 0.76 7.83117 0.76C9.04451 0.76 10.1378 0.973333 11.1112 1.4C12.0978 1.81333 12.9245 2.42667 13.5912 3.24L11.5112 5.16C11.0312 4.61333 10.4978 4.20667 9.91117 3.94C9.32451 3.66 8.68451 3.52 7.99117 3.52C7.33784 3.52 6.73784 3.62667 6.19117 3.84C5.64451 4.05333 5.17117 4.36 4.77117 4.76C4.37117 5.16 4.05784 5.63333 3.83117 6.18C3.61784 6.72667 3.51117 7.33333 3.51117 8C3.51117 8.66667 3.61784 9.27333 3.83117 9.82C4.05784 10.3667 4.37117 10.84 4.77117 11.24C5.17117 11.64 5.64451 11.9467 6.19117 12.16C6.73784 12.3733 7.33784 12.48 7.99117 12.48C8.68451 12.48 9.32451 12.3467 9.91117 12.08C10.4978 11.8 11.0312 11.38 11.5112 10.82L13.5912 12.74C12.9245 13.5533 12.0978 14.1733 11.1112 14.6C10.1378 15.0267 9.03784 15.24 7.81117 15.24ZM20.301 15.24C19.181 15.24 18.1077 15.0933 17.081 14.8C16.0543 14.4933 15.2277 14.1 14.601 13.62L15.701 11.18C16.301 11.6067 17.0077 11.96 17.821 12.24C18.6477 12.5067 19.481 12.64 20.321 12.64C20.961 12.64 21.4743 12.58 21.861 12.46C22.261 12.3267 22.5543 12.1467 22.741 11.92C22.9277 11.6933 23.021 11.4333 23.021 11.14C23.021 10.7667 22.8743 10.4733 22.581 10.26C22.2877 10.0333 21.901 9.85333 21.421 9.72C20.941 9.57333 20.4077 9.44 19.821 9.32C19.2477 9.18667 18.6677 9.02667 18.081 8.84C17.5077 8.65333 16.981 8.41333 16.501 8.12C16.021 7.82667 15.6277 7.44 15.321 6.96C15.0277 6.48 14.881 5.86667 14.881 5.12C14.881 4.32 15.0943 3.59333 15.521 2.94C15.961 2.27333 16.6143 1.74667 17.481 1.36C18.361 0.96 19.461 0.76 20.781 0.76C21.661 0.76 22.5277 0.866666 23.381 1.08C24.2343 1.28 24.9877 1.58667 25.641 2L24.641 4.46C23.9877 4.08667 23.3343 3.81333 22.681 3.64C22.0277 3.45333 21.3877 3.36 20.761 3.36C20.1343 3.36 19.621 3.43333 19.221 3.58C18.821 3.72667 18.5343 3.92 18.361 4.16C18.1877 4.38667 18.101 4.65333 18.101 4.96C18.101 5.32 18.2477 5.61333 18.541 5.84C18.8343 6.05333 19.221 6.22667 19.701 6.36C20.181 6.49333 20.7077 6.62667 21.281 6.76C21.8677 6.89333 22.4477 7.04667 23.021 7.22C23.6077 7.39333 24.141 7.62667 24.621 7.92C25.101 8.21333 25.4877 8.6 25.781 9.08C26.0877 9.56 26.241 10.1667 26.241 10.9C26.241 11.6867 26.021 12.4067 25.581 13.06C25.141 13.7133 24.481 14.24 23.601 14.64C22.7343 15.04 21.6343 15.24 20.301 15.24ZM33.0549 15.24C31.9349 15.24 30.8616 15.0933 29.8349 14.8C28.8083 14.4933 27.9816 14.1 27.3549 13.62L28.4549 11.18C29.0549 11.6067 29.7616 11.96 30.5749 12.24C31.4016 12.5067 32.2349 12.64 33.0749 12.64C33.7149 12.64 34.2283 12.58 34.6149 12.46C35.0149 12.3267 35.3083 12.1467 35.4949 11.92C35.6816 11.6933 35.7749 11.4333 35.7749 11.14C35.7749 10.7667 35.6283 10.4733 35.3349 10.26C35.0416 10.0333 34.6549 9.85333 34.1749 9.72C33.6949 9.57333 33.1616 9.44 32.5749 9.32C32.0016 9.18667 31.4216 9.02667 30.8349 8.84C30.2616 8.65333 29.7349 8.41333 29.2549 8.12C28.7749 7.82667 28.3816 7.44 28.0749 6.96C27.7816 6.48 27.6349 5.86667 27.6349 5.12C27.6349 4.32 27.8483 3.59333 28.2749 2.94C28.7149 2.27333 29.3683 1.74667 30.2349 1.36C31.1149 0.96 32.2149 0.76 33.5349 0.76C34.4149 0.76 35.2816 0.866666 36.1349 1.08C36.9883 1.28 37.7416 1.58667 38.3949 2L37.3949 4.46C36.7416 4.08667 36.0883 3.81333 35.4349 3.64C34.7816 3.45333 34.1416 3.36 33.5149 3.36C32.8883 3.36 32.3749 3.43333 31.9749 3.58C31.5749 3.72667 31.2883 3.92 31.1149 4.16C30.9416 4.38667 30.8549 4.65333 30.8549 4.96C30.8549 5.32 31.0016 5.61333 31.2949 5.84C31.5883 6.05333 31.9749 6.22667 32.4549 6.36C32.9349 6.49333 33.4616 6.62667 34.0349 6.76C34.6216 6.89333 35.2016 7.04667 35.7749 7.22C36.3616 7.39333 36.8949 7.62667 37.3749 7.92C37.8549 8.21333 38.2416 8.6 38.5349 9.08C38.8416 9.56 38.9949 10.1667 38.9949 10.9C38.9949 11.6867 38.7749 12.4067 38.3349 13.06C37.8949 13.7133 37.2349 14.24 36.3549 14.64C35.4883 15.04 34.3883 15.24 33.0549 15.24Z" fill="#E40F79"/>
</svg>
