<svg width="57" height="16" viewBox="0 0 57 16" fill="none" xmlns="http://www.w3.org/2000/svg">
<path d="M7.84774 15.24C6.74107 15.24 5.72107 15.0667 4.78773 14.72C3.86773 14.36 3.06107 13.8533 2.36773 13.2C1.68773 12.5467 1.1544 11.78 0.767734 10.9C0.394401 10.02 0.207734 9.05333 0.207734 8C0.207734 6.94667 0.394401 5.98 0.767734 5.1C1.1544 4.22 1.6944 3.45333 2.38773 2.8C3.08107 2.14667 3.8944 1.64667 4.82773 1.3C5.76107 0.939999 6.78773 0.76 7.90773 0.76C9.14773 0.76 10.2611 0.966666 11.2477 1.38C12.2477 1.79333 13.0877 2.39333 13.7677 3.18L11.6877 5.1C11.1811 4.56667 10.6277 4.17333 10.0277 3.92C9.42773 3.65333 8.7744 3.52 8.06773 3.52C7.38773 3.52 6.76773 3.62667 6.20773 3.84C5.64773 4.05333 5.16107 4.36 4.74773 4.76C4.34773 5.16 4.0344 5.63333 3.80773 6.18C3.5944 6.72667 3.48773 7.33333 3.48773 8C3.48773 8.65333 3.5944 9.25333 3.80773 9.8C4.0344 10.3467 4.34773 10.8267 4.74773 11.24C5.16107 11.64 5.64107 11.9467 6.18773 12.16C6.74773 12.3733 7.36107 12.48 8.02773 12.48C8.66773 12.48 9.28773 12.38 9.88773 12.18C10.5011 11.9667 11.0944 11.6133 11.6677 11.12L13.5077 13.46C12.7477 14.0333 11.8611 14.4733 10.8477 14.78C9.84773 15.0867 8.84773 15.24 7.84774 15.24ZM10.5477 13.04V7.78H13.5077V13.46L10.5477 13.04ZM21.1174 15.24C19.9974 15.24 18.9241 15.0933 17.8974 14.8C16.8708 14.4933 16.0441 14.1 15.4174 13.62L16.5174 11.18C17.1174 11.6067 17.8241 11.96 18.6374 12.24C19.4641 12.5067 20.2974 12.64 21.1374 12.64C21.7774 12.64 22.2908 12.58 22.6774 12.46C23.0774 12.3267 23.3708 12.1467 23.5574 11.92C23.7441 11.6933 23.8374 11.4333 23.8374 11.14C23.8374 10.7667 23.6908 10.4733 23.3974 10.26C23.1041 10.0333 22.7174 9.85333 22.2374 9.72C21.7574 9.57333 21.2241 9.44 20.6374 9.32C20.0641 9.18667 19.4841 9.02667 18.8974 8.84C18.3241 8.65333 17.7974 8.41333 17.3174 8.12C16.8374 7.82667 16.4441 7.44 16.1374 6.96C15.8441 6.48 15.6974 5.86667 15.6974 5.12C15.6974 4.32 15.9108 3.59333 16.3374 2.94C16.7774 2.27333 17.4308 1.74667 18.2974 1.36C19.1774 0.96 20.2774 0.76 21.5974 0.76C22.4774 0.76 23.3441 0.866666 24.1974 1.08C25.0508 1.28 25.8041 1.58667 26.4574 2L25.4574 4.46C24.8041 4.08667 24.1508 3.81333 23.4974 3.64C22.8441 3.45333 22.2041 3.36 21.5774 3.36C20.9508 3.36 20.4374 3.43333 20.0374 3.58C19.6374 3.72667 19.3508 3.92 19.1774 4.16C19.0041 4.38667 18.9174 4.65333 18.9174 4.96C18.9174 5.32 19.0641 5.61333 19.3574 5.84C19.6508 6.05333 20.0374 6.22667 20.5174 6.36C20.9974 6.49333 21.5241 6.62667 22.0974 6.76C22.6841 6.89333 23.2641 7.04667 23.8374 7.22C24.4241 7.39333 24.9574 7.62667 25.4374 7.92C25.9174 8.21333 26.3041 8.6 26.5974 9.08C26.9041 9.56 27.0574 10.1667 27.0574 10.9C27.0574 11.6867 26.8374 12.4067 26.3974 13.06C25.9574 13.7133 25.2974 14.24 24.4174 14.64C23.5508 15.04 22.4508 15.24 21.1174 15.24ZM27.4313 15L33.6713 0.999999H36.8713L43.1313 15H39.7313L34.6113 2.64H35.8913L30.7513 15H27.4313ZM30.5513 12L31.4113 9.54H38.6113L39.4913 12H30.5513ZM44.5838 15V0.999999H50.6438C51.8972 0.999999 52.9772 1.20667 53.8838 1.62C54.7905 2.02 55.4905 2.6 55.9838 3.36C56.4772 4.12 56.7238 5.02667 56.7238 6.08C56.7238 7.12 56.4772 8.02 55.9838 8.78C55.4905 9.54 54.7905 10.1267 53.8838 10.54C52.9772 10.94 51.8972 11.14 50.6438 11.14H46.3838L47.8238 9.68V15H44.5838ZM47.8238 10.04L46.3838 8.5H50.4638C51.4638 8.5 52.2105 8.28667 52.7038 7.86C53.1972 7.43333 53.4438 6.84 53.4438 6.08C53.4438 5.30667 53.1972 4.70667 52.7038 4.28C52.2105 3.85333 51.4638 3.64 50.4638 3.64H46.3838L47.8238 2.1V10.04Z" fill="#E40F79"/>
</svg>
