<svg width="59" height="14" viewBox="0 0 59 14" fill="none" xmlns="http://www.w3.org/2000/svg">
<path d="M10.4163 -9.53674e-07H13.6563V14H10.4163V-9.53674e-07ZM4.05625 14H0.81625V-9.53674e-07H4.05625V14ZM10.6563 8.26H3.81625V5.52H10.6563V8.26ZM19.8686 14V2.64H15.3886V-9.53674e-07H27.5886V2.64H23.1086V14H19.8686ZM29.3319 14V-9.53674e-07H32.0119L37.9719 9.88H36.5519L42.4119 -9.53674e-07H45.0719L45.1119 14H42.0719L42.0519 4.66H42.6119L37.9319 12.52H36.4719L31.6919 4.66H32.3719V14H29.3319ZM48.4334 14V-9.53674e-07H51.6734V11.36H58.6934V14H48.4334Z" fill="#E40F79"/>
</svg>
