<svg width="54" height="16" viewBox="0 0 54 16" fill="none" xmlns="http://www.w3.org/2000/svg">
<path d="M6.47289 15.24C5.35289 15.24 4.27956 15.0933 3.25289 14.8C2.22622 14.4933 1.39956 14.1 0.772891 13.62L1.87289 11.18C2.47289 11.6067 3.17956 11.96 3.99289 12.24C4.81956 12.5067 5.65289 12.64 6.49289 12.64C7.13289 12.64 7.64622 12.58 8.03289 12.46C8.43289 12.3267 8.72622 12.1467 8.91289 11.92C9.09956 11.6933 9.19289 11.4333 9.19289 11.14C9.19289 10.7667 9.04622 10.4733 8.75289 10.26C8.45956 10.0333 8.07289 9.85333 7.59289 9.72C7.11289 9.57333 6.57956 9.44 5.99289 9.32C5.41956 9.18667 4.83956 9.02667 4.25289 8.84C3.67956 8.65333 3.15289 8.41333 2.67289 8.12C2.19289 7.82667 1.79956 7.44 1.49289 6.96C1.19956 6.48 1.05289 5.86667 1.05289 5.12C1.05289 4.32 1.26622 3.59333 1.69289 2.94C2.13289 2.27333 2.78622 1.74667 3.65289 1.36C4.53289 0.96 5.63289 0.76 6.95289 0.76C7.83289 0.76 8.69956 0.866666 9.55289 1.08C10.4062 1.28 11.1596 1.58667 11.8129 2L10.8129 4.46C10.1596 4.08667 9.50622 3.81333 8.85289 3.64C8.19956 3.45333 7.55956 3.36 6.93289 3.36C6.30622 3.36 5.79289 3.43333 5.39289 3.58C4.99289 3.72667 4.70622 3.92 4.53289 4.16C4.35956 4.38667 4.27289 4.65333 4.27289 4.96C4.27289 5.32 4.41956 5.61333 4.71289 5.84C5.00622 6.05333 5.39289 6.22667 5.87289 6.36C6.35289 6.49333 6.87956 6.62667 7.45289 6.76C8.03956 6.89333 8.61956 7.04667 9.19289 7.22C9.77956 7.39333 10.3129 7.62667 10.7929 7.92C11.2729 8.21333 11.6596 8.6 11.9529 9.08C12.2596 9.56 12.4129 10.1667 12.4129 10.9C12.4129 11.6867 12.1929 12.4067 11.7529 13.06C11.3129 13.7133 10.6529 14.24 9.77289 14.64C8.90622 15.04 7.80622 15.24 6.47289 15.24ZM12.7868 15L19.0268 0.999999H22.2268L28.4868 15H25.0868L19.9668 2.64H21.2468L16.1068 15H12.7868ZM15.9068 12L16.7668 9.54H23.9668L24.8468 12H15.9068ZM34.5393 15.24C33.4193 15.24 32.346 15.0933 31.3193 14.8C30.2926 14.4933 29.466 14.1 28.8393 13.62L29.9393 11.18C30.5393 11.6067 31.246 11.96 32.0593 12.24C32.886 12.5067 33.7193 12.64 34.5593 12.64C35.1993 12.64 35.7126 12.58 36.0993 12.46C36.4993 12.3267 36.7926 12.1467 36.9793 11.92C37.166 11.6933 37.2593 11.4333 37.2593 11.14C37.2593 10.7667 37.1126 10.4733 36.8193 10.26C36.526 10.0333 36.1393 9.85333 35.6593 9.72C35.1793 9.57333 34.646 9.44 34.0593 9.32C33.486 9.18667 32.906 9.02667 32.3193 8.84C31.746 8.65333 31.2193 8.41333 30.7393 8.12C30.2593 7.82667 29.866 7.44 29.5593 6.96C29.266 6.48 29.1193 5.86667 29.1193 5.12C29.1193 4.32 29.3326 3.59333 29.7593 2.94C30.1993 2.27333 30.8526 1.74667 31.7193 1.36C32.5993 0.96 33.6993 0.76 35.0193 0.76C35.8993 0.76 36.766 0.866666 37.6193 1.08C38.4726 1.28 39.226 1.58667 39.8793 2L38.8793 4.46C38.226 4.08667 37.5726 3.81333 36.9193 3.64C36.266 3.45333 35.626 3.36 34.9993 3.36C34.3726 3.36 33.8593 3.43333 33.4593 3.58C33.0593 3.72667 32.7726 3.92 32.5993 4.16C32.426 4.38667 32.3393 4.65333 32.3393 4.96C32.3393 5.32 32.486 5.61333 32.7793 5.84C33.0726 6.05333 33.4593 6.22667 33.9393 6.36C34.4193 6.49333 34.946 6.62667 35.5193 6.76C36.106 6.89333 36.686 7.04667 37.2593 7.22C37.846 7.39333 38.3793 7.62667 38.8593 7.92C39.3393 8.21333 39.726 8.6 40.0193 9.08C40.326 9.56 40.4793 10.1667 40.4793 10.9C40.4793 11.6867 40.2593 12.4067 39.8193 13.06C39.3793 13.7133 38.7193 14.24 37.8393 14.64C36.9726 15.04 35.8726 15.24 34.5393 15.24ZM47.2932 15.24C46.1732 15.24 45.0999 15.0933 44.0732 14.8C43.0465 14.4933 42.2199 14.1 41.5932 13.62L42.6932 11.18C43.2932 11.6067 43.9999 11.96 44.8132 12.24C45.6399 12.5067 46.4732 12.64 47.3132 12.64C47.9532 12.64 48.4665 12.58 48.8532 12.46C49.2532 12.3267 49.5465 12.1467 49.7332 11.92C49.9199 11.6933 50.0132 11.4333 50.0132 11.14C50.0132 10.7667 49.8665 10.4733 49.5732 10.26C49.2799 10.0333 48.8932 9.85333 48.4132 9.72C47.9332 9.57333 47.3999 9.44 46.8132 9.32C46.2399 9.18667 45.6599 9.02667 45.0732 8.84C44.4999 8.65333 43.9732 8.41333 43.4932 8.12C43.0132 7.82667 42.6199 7.44 42.3132 6.96C42.0199 6.48 41.8732 5.86667 41.8732 5.12C41.8732 4.32 42.0865 3.59333 42.5132 2.94C42.9532 2.27333 43.6065 1.74667 44.4732 1.36C45.3532 0.96 46.4532 0.76 47.7732 0.76C48.6532 0.76 49.5199 0.866666 50.3732 1.08C51.2265 1.28 51.9799 1.58667 52.6332 2L51.6332 4.46C50.9799 4.08667 50.3265 3.81333 49.6732 3.64C49.0199 3.45333 48.3799 3.36 47.7532 3.36C47.1265 3.36 46.6132 3.43333 46.2132 3.58C45.8132 3.72667 45.5265 3.92 45.3532 4.16C45.1799 4.38667 45.0932 4.65333 45.0932 4.96C45.0932 5.32 45.2399 5.61333 45.5332 5.84C45.8265 6.05333 46.2132 6.22667 46.6932 6.36C47.1732 6.49333 47.6999 6.62667 48.2732 6.76C48.8599 6.89333 49.4399 7.04667 50.0132 7.22C50.5999 7.39333 51.1332 7.62667 51.6132 7.92C52.0932 8.21333 52.4799 8.6 52.7732 9.08C53.0799 9.56 53.2332 10.1667 53.2332 10.9C53.2332 11.6867 53.0132 12.4067 52.5732 13.06C52.1332 13.7133 51.4732 14.24 50.5932 14.64C49.7265 15.04 48.6265 15.24 47.2932 15.24Z" fill="#E40F79"/>
</svg>
