<svg width="20" height="15" viewBox="0 0 20 15" fill="none" xmlns="http://www.w3.org/2000/svg">
<path d="M7.21789 14.24C5.23122 14.24 3.67789 13.6867 2.55789 12.58C1.43789 11.4733 0.877891 9.89333 0.877891 7.84V-9.53674e-07H4.11789V7.72C4.11789 9.05333 4.39122 10.0133 4.93789 10.6C5.48456 11.1867 6.25122 11.48 7.23789 11.48C8.22456 11.48 8.99122 11.1867 9.53789 10.6C10.0846 10.0133 10.3579 9.05333 10.3579 7.72V-9.53674e-07H13.5579V7.84C13.5579 9.89333 12.9979 11.4733 11.8779 12.58C10.7579 13.6867 9.20456 14.24 7.21789 14.24ZM16.7596 14V-9.53674e-07H19.9996V14H16.7596Z" fill="#E40F79"/>
</svg>
