<svg width="30" height="30" viewBox="0 0 30 30" fill="none" xmlns="http://www.w3.org/2000/svg">
<path d="M15 2.5H10.625C9.46468 2.5 8.35188 2.96094 7.53141 3.78141C6.71094 4.60188 6.25 5.71468 6.25 6.875C6.25 8.03532 6.71094 9.14812 7.53141 9.96859C8.35188 10.7891 9.46468 11.25 10.625 11.25M15 2.5V11.25M15 2.5H19.375C19.9495 2.5 20.5184 2.61316 21.0492 2.83303C21.58 3.05289 22.0623 3.37515 22.4686 3.78141C22.8748 4.18766 23.1971 4.66996 23.417 5.20076C23.6368 5.73156 23.75 6.30047 23.75 6.875C23.75 7.44953 23.6368 8.01844 23.417 8.54924C23.1971 9.08004 22.8748 9.56234 22.4686 9.96859C22.0623 10.3748 21.58 10.6971 21.0492 10.917C20.5184 11.1368 19.9495 11.25 19.375 11.25M15 11.25H10.625M15 11.25H19.375M15 11.25V20M10.625 11.25C9.46468 11.25 8.35188 11.7109 7.53141 12.5314C6.71094 13.3519 6.25 14.4647 6.25 15.625C6.25 16.7853 6.71094 17.8981 7.53141 18.7186C8.35188 19.5391 9.46468 20 10.625 20M19.375 11.25C18.8005 11.25 18.2316 11.3632 17.7008 11.583C17.17 11.8029 16.6877 12.1252 16.2814 12.5314C15.8752 12.9377 15.5529 13.42 15.333 13.9508C15.1132 14.4816 15 15.0505 15 15.625C15 16.1995 15.1132 16.7684 15.333 17.2992C15.5529 17.83 15.8752 18.3123 16.2814 18.7186C16.6877 19.1248 17.17 19.4471 17.7008 19.667C18.2316 19.8868 18.8005 20 19.375 20C19.9495 20 20.5184 19.8868 21.0492 19.667C21.58 19.4471 22.0623 19.1248 22.4686 18.7186C22.8748 18.3123 23.1971 17.83 23.417 17.2992C23.6368 16.7684 23.75 16.1995 23.75 15.625C23.75 15.0505 23.6368 14.4816 23.417 13.9508C23.1971 13.42 22.8748 12.9377 22.4686 12.5314C22.0623 12.1252 21.58 11.8029 21.0492 11.583C20.5184 11.3632 19.9495 11.25 19.375 11.25ZM10.625 20C9.46468 20 8.35188 20.4609 7.53141 21.2814C6.71094 22.1019 6.25 23.2147 6.25 24.375C6.25 25.5353 6.71094 26.6481 7.53141 27.4686C8.35188 28.2891 9.46468 28.75 10.625 28.75C11.7853 28.75 12.8981 28.2891 13.7186 27.4686C14.5391 26.6481 15 25.5353 15 24.375V20M10.625 20H15" stroke="#E40F79" stroke-width="2" stroke-linecap="round" stroke-linejoin="round"/>
</svg>
