<svg width="42" height="42" viewBox="0 0 42 42" fill="none" xmlns="http://www.w3.org/2000/svg">
<circle cx="21" cy="21" r="21" fill="black"/>
<path d="M25 17C26.5913 17 28.1174 17.6321 29.2426 18.7574C30.3679 19.8826 31 21.4087 31 23V30H27V23C27 22.4696 26.7893 21.9609 26.4142 21.5858C26.0391 21.2107 25.5304 21 25 21C24.4696 21 23.9609 21.2107 23.5858 21.5858C23.2107 21.9609 23 22.4696 23 23V30H19V23C19 21.4087 19.6321 19.8826 20.7574 18.7574C21.8826 17.6321 23.4087 17 25 17Z" fill="white"/>
<path d="M15 18H11V30H15V18Z" fill="white"/>
<path d="M13 15C14.1046 15 15 14.1046 15 13C15 11.8954 14.1046 11 13 11C11.8954 11 11 11.8954 11 13C11 14.1046 11.8954 15 13 15Z" fill="white"/>
<path d="M25 17C26.5913 17 28.1174 17.6321 29.2426 18.7574C30.3679 19.8826 31 21.4087 31 23V30H27V23C27 22.4696 26.7893 21.9609 26.4142 21.5858C26.0391 21.2107 25.5304 21 25 21C24.4696 21 23.9609 21.2107 23.5858 21.5858C23.2107 21.9609 23 22.4696 23 23V30H19V23C19 21.4087 19.6321 19.8826 20.7574 18.7574C21.8826 17.6321 23.4087 17 25 17Z" stroke="#F5F5F5" stroke-linecap="round" stroke-linejoin="round"/>
<path d="M15 18H11V30H15V18Z" stroke="#F5F5F5" stroke-linecap="round" stroke-linejoin="round"/>
<path d="M13 15C14.1046 15 15 14.1046 15 13C15 11.8954 14.1046 11 13 11C11.8954 11 11 11.8954 11 13C11 14.1046 11.8954 15 13 15Z" stroke="#F5F5F5" stroke-linecap="round" stroke-linejoin="round"/>
</svg>
