<svg width="42" height="42" viewBox="0 0 42 42" fill="none" xmlns="http://www.w3.org/2000/svg">
<g clip-path="url(#clip0_140_380)">
<path d="M15.47 18.9613H12.0312V15.708H15.1515C18.438 15.708 18.032 18.9613 15.47 18.9613ZM25.6007 20.8127H30.1928C29.9915 17.8605 26.0627 17.6453 25.6007 20.8127ZM15.2758 21.5057H12.0312V24.913H15.2233C18.3418 24.9112 18.151 21.5057 15.2758 21.5057ZM42 21C42 32.5972 32.5972 42 21 42C9.40275 42 0 32.5972 0 21C0 9.40275 9.40275 0 21 0C32.5972 0 42 9.40275 42 21ZM18.6252 19.7173C21.5442 18.2245 21.4375 12.7505 15.848 12.6683H8.75V27.9457H15.3492C22.2757 27.9457 22.1585 21.0035 18.6252 19.7173ZM24.5 14.1768H31.5V12.6455H24.5V14.1768ZM33.1503 20.6395C32.1965 14.5057 22.5575 14.1453 22.5575 22.1655C22.5575 30.086 31.6225 28.847 32.9683 24.8955H29.7342C28.6055 26.2045 25.3452 25.8247 25.5273 22.8235H33.2448C33.2605 21.8522 33.229 21.1558 33.1503 20.6395Z" fill="black"/>
</g>
<defs>
<clipPath id="clip0_140_380">
<rect width="42" height="42" fill="white"/>
</clipPath>
</defs>
</svg>
