<svg width="29" height="15" viewBox="0 0 29 15" fill="none" xmlns="http://www.w3.org/2000/svg">
<path d="M6.95813 14.24C4.97146 14.24 3.41813 13.6867 2.29813 12.58C1.17813 11.4733 0.618125 9.89333 0.618125 7.84V-9.53674e-07H3.85813V7.72C3.85813 9.05333 4.13146 10.0133 4.67813 10.6C5.22479 11.1867 5.99146 11.48 6.97813 11.48C7.96479 11.48 8.73146 11.1867 9.27813 10.6C9.82479 10.0133 10.0981 9.05333 10.0981 7.72V-9.53674e-07H13.2981V7.84C13.2981 9.89333 12.7381 11.4733 11.6181 12.58C10.4981 13.6867 8.94479 14.24 6.95813 14.24ZM14.7045 14L20.7245 5.7V8.06L14.9645 -9.53674e-07H18.6445L22.6245 5.62L21.0845 5.64L25.0045 -9.53674e-07H28.5245L22.8045 7.92V5.6L28.8645 14H25.1245L21.0045 8.06H22.4845L18.4245 14H14.7045Z" fill="#E40F79"/>
</svg>
